<?xml version="1.0" encoding="UTF-8"?>
<svg version="1.1" xmlns="http://www.w3.org/2000/svg" width="1200" height="896">
<path d="M0 0 C396 0 792 0 1200 0 C1200 295.68 1200 591.36 1200 896 C804 896 408 896 0 896 C0 600.32 0 304.64 0 0 Z " fill="#FEFEFE" transform="translate(0,0)"/>
<path d="M0 0 C4.37406801 2.2282988 7.30228616 4.90347157 10 9 C10.75 11.8125 10.75 11.8125 11 14 C12.20011719 14.3815625 13.40023437 14.763125 14.63671875 15.15625 C20.48714326 17.10829185 26.18598004 19.41379157 31.90139771 21.72677612 C35.20795025 23.06459325 38.51823046 24.39313409 41.828125 25.72265625 C42.84345055 26.13083336 42.84345055 26.13083336 43.87928772 26.54725647 C50.92704169 29.37798004 57.9925538 32.16274908 65.0625 34.9375 C66.17149658 35.37320313 67.28049316 35.80890625 68.4230957 36.2578125 C75.93630618 39.20439176 83.46436754 42.11127671 91 45 C91 49.01553568 89.62345143 49.9017698 86.875 52.75 C86.10929688 53.56984375 85.34359375 54.3896875 84.5546875 55.234375 C82 57 82 57 79.45483398 56.84716797 C74.83857902 55.71520523 70.56427973 54.00169283 66.16796875 52.2109375 C65.21795486 51.82942535 64.26794098 51.44791321 63.28913879 51.05484009 C60.25294754 49.8338768 57.22023943 48.60450853 54.1875 47.375 C52.19097246 46.57107485 50.19422952 45.76768439 48.19726562 44.96484375 C36.77482231 40.366532 25.37738916 35.7086109 14 31 C16.17831977 33.68594177 18.36433218 36.36332521 20.57421875 39.0234375 C22.02305431 40.80123573 23.43624023 42.61054372 24.76953125 44.4765625 C27.91023866 48.69284864 27.91023866 48.69284864 32.66796875 50.5703125 C34.57869939 50.68892736 36.49224744 50.76915688 38.40625 50.80859375 C42.15252857 51.08505105 44.2453518 52.52787982 47 55 C48.81323892 57.94340838 49.25146628 60.12576643 49.1875 63.5625 C49.17783203 64.70912109 49.17783203 64.70912109 49.16796875 65.87890625 C49 68 49 68 48 71 C49.93377791 73.68132631 52.1114807 76.06235085 54.3125 78.52734375 C56 81 56 81 55.84765625 83.20703125 C54.87366012 85.26723505 53.71148472 86.51175242 52 88 C48.29897951 86.5356832 46.90043763 84.66329055 44.75 81.375 C42.47856716 78.09423994 42.47856716 78.09423994 39.015625 76.55078125 C37.67359421 76.64181047 36.33374332 76.77468593 35 76.94921875 C31.36860937 77.04142203 28.94402761 74.96268507 26 73 C26 72.34 26 71.68 26 71 C24.79988281 71.43570313 23.59976563 71.87140625 22.36328125 72.3203125 C13.66511576 75.44112276 4.97752979 78.37310312 -3.9375 80.8125 C-14.0730023 83.59626277 -23.96721014 86.99881089 -33.87670898 90.4855957 C-35.04532471 90.89640381 -36.21394043 91.30721191 -37.41796875 91.73046875 C-39.09379028 92.32468628 -39.09379028 92.32468628 -40.8034668 92.9309082 C-43.75589786 93.91835918 -46.70536353 94.71709996 -49.71875 95.4921875 C-53.29581793 96.50547781 -53.29581793 96.50547781 -55.67578125 99.33984375 C-55.99095703 100.62568359 -55.99095703 100.62568359 -56.3125 101.9375 C-57.72476242 106.40857963 -58.71022892 108.66012487 -63 111 C-64.31696131 111.21267889 -65.63614632 111.41185497 -66.95678711 111.6003418 C-69.40631581 112.19671632 -70.62883676 112.51562759 -72.17703247 114.53604126 C-73.10339809 116.62800116 -73.79481211 118.69980344 -74.44140625 120.89453125 C-74.69881088 121.6789006 -74.95621552 122.46326996 -75.22142029 123.27140808 C-75.7583029 124.92833873 -76.27932246 126.59048257 -76.78540039 128.25708008 C-77.55998766 130.80423841 -78.38149732 133.33220951 -79.21289062 135.86132812 C-79.72938137 137.47566334 -80.24314627 139.09087373 -80.75390625 140.70703125 C-80.99645645 141.46240677 -81.23900665 142.21778229 -81.48890686 142.99604797 C-83.14214751 148.49840264 -83.25699037 151.5520568 -80.65234375 156.62451172 C-80.08644531 157.55021973 -79.52054688 158.47592773 -78.9375 159.4296875 C-78.31020996 160.46440186 -77.68291992 161.49911621 -77.03662109 162.56518555 C-76.36453613 163.65742432 -75.69245117 164.74966309 -75 165.875 C-74.30605698 167.01492681 -73.61286455 168.15531088 -72.92041016 169.29614258 C-71.55818341 171.53688822 -70.19318143 173.77594943 -68.82519531 176.01318359 C-66.99991303 179.00014233 -65.18725389 181.99407791 -63.38891602 184.99731445 C-62.36709276 186.70068127 -61.3338858 188.39720166 -60.30078125 190.09375 C-58.41650629 193.2344903 -56.66492959 196.43729815 -54.91796875 199.65625 C-54.36383301 200.65180908 -53.80969727 201.64736816 -53.23876953 202.6730957 C-52.14923831 204.63237942 -51.08236916 206.60449901 -50.04248047 208.59057617 C-46.12923351 215.54338897 -42.56313621 217.81677419 -35 220 C-33.50298204 220.55484549 -32.01043793 221.12196581 -30.5234375 221.703125 C-29.14105559 222.21990329 -27.75824891 222.73554689 -26.375 223.25 C-25.65699219 223.518125 -24.93898438 223.78625 -24.19921875 224.0625 C-22.46653235 224.70936959 -20.73332444 225.35484202 -19 226 C-19.66 228.31 -20.32 230.62 -21 233 C-25.47400286 232.61095627 -29.09331588 231.6683213 -33.2578125 229.953125 C-34.14871582 229.58864258 -35.03961914 229.22416016 -35.95751953 228.84863281 C-36.63153809 228.56858398 -37.30555664 228.28853516 -38 228 C-37.53215088 228.76965088 -37.06430176 229.53930176 -36.58227539 230.33227539 C-32.45952697 237.11561408 -28.33979274 243.90076582 -24.2240448 250.68835449 C-22.11100662 254.17217948 -19.99230099 257.65242749 -17.8671875 261.12890625 C-17.05715455 262.46085412 -16.24724284 263.79287574 -15.4375 265.125 C-14.75558594 266.24132812 -14.07367188 267.35765625 -13.37109375 268.5078125 C-12 271 -12 271 -12 273 C-11.34 273 -10.68 273 -10 273 C-10 265.08 -10 257.16 -10 249 C-7.36 249 -4.72 249 -2 249 C-2 256.92 -2 264.84 -2 273 C1.2972248 269.7027752 3.00638868 267.57665531 5.171875 263.6328125 C5.75050293 262.58794678 6.32913086 261.54308105 6.92529297 260.46655273 C7.52744629 259.36384033 8.12959961 258.26112793 8.75 257.125 C9.99695331 254.86824501 11.24434679 252.61173318 12.4921875 250.35546875 C13.09256836 249.26540527 13.69294922 248.1753418 14.31152344 247.05224609 C16.46447392 243.16037407 18.65872246 239.29357273 20.875 235.4375 C21.49117187 234.36371094 22.10734375 233.28992188 22.7421875 232.18359375 C23.15726563 231.46300781 23.57234375 230.74242187 24 230 C23.25234375 230.2165625 22.5046875 230.433125 21.734375 230.65625 C20.74953125 230.9346875 19.7646875 231.213125 18.75 231.5 C17.77546875 231.7784375 16.8009375 232.056875 15.796875 232.34375 C13 233 13 233 9 233 C8.67 230.36 8.34 227.72 8 225 C8.64437012 224.85191895 9.28874023 224.70383789 9.95263672 224.55126953 C23.55960671 221.57613783 23.55960671 221.57613783 34.2265625 213.41015625 C36.4022699 209.72910406 38.04688394 205.81422024 39.70068359 201.87695312 C42.06111171 196.65048094 44.97050357 191.70987551 47.79980469 186.72671509 C50.00834081 182.82470616 52.17057896 178.89671861 54.33959961 174.97265625 C55.40284952 173.06909341 56.48294071 171.17478092 57.58422852 169.29296875 C58.04885498 168.49375 58.51348145 167.69453125 58.9921875 166.87109375 C59.39937012 166.18587646 59.80655273 165.50065918 60.22607422 164.79467773 C61.27085017 162.86440377 61.27085017 162.86440377 60.3125 160.125 C59.879375 159.09375 59.44625 158.0625 59 157 C58.23577383 152.14491607 57.87258328 147.84861018 60.49609375 143.546875 C65.96336352 137.22712034 65.96336352 137.22712034 70.13671875 136.76171875 C76.37938947 136.58007902 79.9748558 137.20550336 85 141 C88.91173636 146.33502072 88.85549121 151.60163866 88 158 C85.9375 160.875 85.9375 160.875 84 163 C84.3666901 168.1031039 86.2230541 172.65475135 88.0625 177.375 C88.34416016 178.11105469 88.62582031 178.84710938 88.91601562 179.60546875 C89.60566618 181.4055736 90.30213932 183.2030621 91 185 C93.72899743 179.15214837 95.40786221 173.24416541 97 167 C97.37125 165.59041016 97.37125 165.59041016 97.75 164.15234375 C101.5189584 149.56725996 103.58433986 135.48779703 104.5625 120.5 C104.73069175 117.96187756 104.9019154 115.42413025 105.08226013 112.88684082 C105.193074 111.32573355 105.29713183 109.76412517 105.39295959 108.20202637 C105.90146767 100.99533271 106.91571077 95.36280641 112.4375 90.3125 C115.77126431 87.22112622 115.77126431 87.22112622 118.66015625 83.73046875 C119.10230469 83.15941406 119.54445313 82.58835937 120 82 C120.66 82 121.32 82 122 82 C122.16286753 92.84607271 121.75760419 103.5095826 120.75 114.3125 C120.68342194 115.04167633 120.61684387 115.77085266 120.54824829 116.52212524 C118.27380595 141.2287535 114.97545454 165.65385561 106.52856445 189.10913086 C105.57556728 192.51835169 106.47490126 194.94980251 108 198 C108.61623941 203.30846237 108.94817972 208.39020514 105.9375 213 C103.05675302 216.40303538 100.24149778 217.71240246 96 219 C93.0625 219.1875 93.0625 219.1875 91 219 C90.77054688 219.6909375 90.54109375 220.381875 90.3046875 221.09375 C88.71378461 224.63755764 86.53836399 227.49192921 84.125 230.5 C83.6388623 231.11020996 83.15272461 231.72041992 82.65185547 232.34912109 C64.09961767 255.35104817 41.34790386 274.98499969 14.75 288.125 C10.27684313 290.4715741 8.73379253 292.56084647 6.85546875 297.1640625 C5.27694825 300.55175489 3.37741632 301.55253586 0 303 C-4.73708933 303.68323404 -9.53496795 304.08595954 -14.00390625 302.1171875 C-16.88131946 299.9392958 -18.02772947 297.92235747 -19.23046875 294.5546875 C-21.34289686 290.3111785 -23.61292509 289.04881461 -27.75 287.1875 C-29.1100083 286.51825803 -30.46670083 285.84224338 -31.8203125 285.16015625 C-32.51415039 284.81098145 -33.20798828 284.46180664 -33.92285156 284.10205078 C-49.44345622 275.86744695 -63.37352917 264.09365607 -76 252 C-76.50418457 251.52304687 -77.00836914 251.04609375 -77.52783203 250.5546875 C-87.41834314 241.16325328 -96.25230908 230.92092062 -103 219 C-103 218.34 -103 217.68 -103 217 C-104.03125 217.0825 -105.0625 217.165 -106.125 217.25 C-110.78735198 216.9492031 -112.52181266 216.09172208 -116 213 C-119.01454048 208.97758604 -120.34522962 205.47265416 -119.8125 200.4375 C-119.37417049 197.88940869 -118.85879554 195.38785957 -118.27734375 192.8671875 C-117.9061526 187.69142363 -119.21396864 183.59504972 -120.75 178.6875 C-121.01554687 177.80126953 -121.28109375 176.91503906 -121.5546875 176.00195312 C-122.60210889 172.51648049 -123.65712967 169.03613971 -124.80053711 165.58081055 C-127.04025443 158.62984184 -128.11514927 151.6675878 -129.0625 144.4375 C-129.23168945 143.16390625 -129.40087891 141.8903125 -129.57519531 140.578125 C-132.40654991 118.64740154 -133.30950355 97.09141102 -133 75 C-133.61359375 74.7215625 -134.2271875 74.443125 -134.859375 74.15625 C-138.19742229 72.35321716 -139.30895026 70.38209947 -141 67 C-141.81422169 61.98439441 -141.5957701 58.1915402 -139.3125 53.625 C-138.549375 52.75875 -137.78625 51.8925 -137 51 C-136.319375 50.21625 -135.63875 49.4325 -134.9375 48.625 C-130.48083394 46.15961026 -125.98996941 46.36045101 -121 47 C-120.35160156 47.35835938 -119.70320313 47.71671875 -119.03515625 48.0859375 C-115.27017998 49.77692492 -111.51997156 48.17400253 -107.7578125 46.91503906 C-106.55898437 46.45323242 -105.36015625 45.99142578 -104.125 45.515625 C-103.44429443 45.25509338 -102.76358887 44.99456177 -102.06225586 44.72613525 C-100.54067044 44.14268751 -99.02013467 43.55649724 -97.50048828 42.96801758 C-94.83449753 41.93592879 -92.16552138 40.91183691 -89.49609375 39.88867188 C-84.38602724 37.92767852 -79.28038684 35.955425 -74.17626953 33.97900391 C-72.07362397 33.16542068 -69.97044066 32.35322577 -67.86669922 31.54248047 C-54.97286198 26.57338 -42.15175343 21.47448576 -29.4375 16.05975342 C-28.49003906 15.65879456 -27.54257812 15.25783569 -26.56640625 14.84472656 C-25.73052979 14.48783752 -24.89465332 14.13094849 -24.03344727 13.76324463 C-22 13 -22 13 -20 13 C-19.9175 12.278125 -19.835 11.55625 -19.75 10.8125 C-18.52973355 6.23650083 -16.19549836 3.80626634 -12.3125 1.1875 C-8.05979644 -0.33705411 -4.466996 -0.72177673 0 0 Z " fill="#0F2F52" transform="translate(331,296)"/>
<path d="M0 0 C3.15204981 1.39347376 5.26171773 3.02485079 7.671875 5.4765625 C8.33574219 6.146875 8.99960937 6.8171875 9.68359375 7.5078125 C10.70646484 8.55582031 10.70646484 8.55582031 11.75 9.625 C12.44738281 10.33140625 13.14476562 11.0378125 13.86328125 11.765625 C15.5801293 13.50599152 17.29123998 15.25170272 19 17 C15.09037878 22.48784507 10.91184279 27.35572042 6.09765625 32.0625 C5.4568663 32.69808838 4.81607635 33.33367676 4.15586853 33.98852539 C2.1295221 35.99724954 0.0965626 37.99909226 -1.9375 40 C-4.61667436 42.64242081 -7.2926136 45.28805673 -9.96484375 47.9375 C-10.92431412 48.88858643 -10.92431412 48.88858643 -11.90316772 49.85888672 C-15.50525345 53.44926829 -18.93578303 57.11157713 -22.22094727 60.99609375 C-27.06081383 66.44766844 -32.41602514 71.46188954 -37.60253906 76.58203125 C-44.75709529 83.59609193 -44.75709529 83.59609193 -51.5 91 C-56.80803468 97.22055396 -62.78716672 102.84107866 -68.60253906 108.58203125 C-74.03799267 113.95416566 -79.39860251 119.32245427 -84.36328125 125.140625 C-88.02996245 129.30611486 -92.07942248 133.11621516 -96.0390625 137 C-100.03022714 140.94493493 -103.81087298 144.9940727 -107.47314453 149.24609375 C-109.21651864 151.248716 -111.04098867 153.14219298 -112.9375 155 C-113.52402344 155.5775 -114.11054688 156.155 -114.71484375 156.75 C-115.35099609 157.36875 -115.35099609 157.36875 -116 158 C-119.44880398 156.54752111 -121.3062169 154.75545368 -123.7109375 151.9140625 C-127.91945271 147.11983498 -132.32819191 142.58366881 -136.8515625 138.0859375 C-137.55947937 137.38132385 -138.26739624 136.67671021 -138.99676514 135.95074463 C-141.20423032 133.75685815 -143.41417814 131.56550358 -145.625 129.375 C-148.55768173 126.46914158 -151.48686939 123.55982363 -154.4140625 120.6484375 C-155.07153473 119.99926361 -155.72900696 119.35008972 -156.40640259 118.6812439 C-160.8165712 114.29415817 -164.96105362 109.73060754 -169 105 C-167.51136264 101.88033959 -165.99711308 99.75987387 -163.5234375 97.328125 C-162.853125 96.66425781 -162.1828125 96.00039063 -161.4921875 95.31640625 C-160.44417969 94.29353516 -160.44417969 94.29353516 -159.375 93.25 C-158.66859375 92.55261719 -157.9621875 91.85523438 -157.234375 91.13671875 C-155.49401297 89.41987512 -153.74915019 87.70788168 -152 86 C-146.37116701 90.68570406 -141.16421013 95.68479552 -136 100.875 C-135.23171875 101.63941406 -134.4634375 102.40382813 -133.671875 103.19140625 C-129.43835573 107.43212539 -125.40512737 111.73967022 -121.60546875 116.37548828 C-119.86889408 118.13266101 -118.25547057 119.02576881 -116 120 C-112.80823908 116.83760418 -109.6223919 113.66931241 -106.4375 110.5 C-105.54224609 109.613125 -104.64699219 108.72625 -103.72460938 107.8125 C-99.87681016 103.97879529 -96.06697562 100.16030813 -92.53515625 96.03125 C-87.54964255 90.21591985 -81.99347467 84.93726625 -76.54296875 79.56347656 C-69.90269375 73.04609324 -69.90269375 73.04609324 -63.65625 66.15625 C-57.76889921 59.27365658 -51.11474821 53.06277196 -44.67919922 46.69970703 C-35.92079686 38.04281348 -35.92079686 38.04281348 -27.67773438 28.90039062 C-23.39217192 24.04608065 -18.64012239 19.60631319 -14.02734375 15.06640625 C-9.13020382 10.21642978 -4.45072561 5.26390876 0 0 Z " fill="#08B9B1" transform="translate(442,336)"/>
<path d="M0 0 C0.87454834 0.00523682 1.74909668 0.01047363 2.65014648 0.01586914 C3.59438477 0.0190918 4.53862305 0.02231445 5.51147461 0.02563477 C6.50469727 0.03401367 7.49791992 0.04239258 8.52124023 0.05102539 C9.51833008 0.05553711 10.51541992 0.06004883 11.54272461 0.06469727 C14.01478872 0.07652532 16.48673541 0.0930069 18.95874023 0.11352539 C24.96315737 15.1054851 30.32289185 30.3062826 35.64624023 45.55102539 C36.91255783 49.16897196 38.17974987 52.78661054 39.44746399 56.40406799 C40.22872411 58.63429969 41.00905546 60.86485705 41.78825378 63.09580994 C43.8770884 69.06839352 46.01464295 75.01763499 48.23493958 80.94276428 C48.95874023 83.11352539 48.95874023 83.11352539 48.95874023 85.11352539 C42.68874023 85.11352539 36.41874023 85.11352539 29.95874023 85.11352539 C25.95874023 72.36352539 25.95874023 72.36352539 25.95874023 70.11352539 C8.63374023 70.60852539 8.63374023 70.60852539 -9.04125977 71.11352539 C-10.69125977 75.73352539 -12.34125977 80.35352539 -14.04125977 85.11352539 C-19.98125977 85.11352539 -25.92125977 85.11352539 -32.04125977 85.11352539 C-30.72930165 78.67003028 -28.96717081 72.62429762 -26.73266602 66.44555664 C-26.24830078 65.08647438 -26.24830078 65.08647438 -25.75415039 63.69993591 C-24.70942838 60.77333126 -23.6568891 57.84961407 -22.60375977 54.92602539 C-21.88136537 52.90953407 -21.15928073 50.89293176 -20.4375 48.8762207 C-18.31452506 42.95202552 -16.1797443 37.03213705 -14.04125977 31.11352539 C-13.73397949 30.26232117 -13.42669922 29.41111694 -13.11010742 28.53411865 C-11.28289544 23.4742346 -9.44730941 18.41747812 -7.60375977 13.36352539 C-7.37310822 12.72919586 -7.14245667 12.09486633 -6.90481567 11.4413147 C-6.26718513 9.69029974 -5.6250676 7.9409206 -4.98266602 6.19165039 C-4.62889893 5.22646484 -4.27513184 4.2612793 -3.91064453 3.2668457 C-2.65121433 0.14744823 -2.65121433 0.14744823 0 0 Z " fill="#113053" transform="translate(515.041259765625,404.886474609375)"/>
<path d="M0 0 C4.08562541 2.19437623 4.08562541 2.19437623 5.25 5.6875 C5.91 5.6875 6.57 5.6875 7.25 5.6875 C7.25 3.7075 7.25 1.7275 7.25 -0.3125 C12.2 -0.3125 17.15 -0.3125 22.25 -0.3125 C22.25 19.8175 22.25 39.9475 22.25 60.6875 C17.3 60.6875 12.35 60.6875 7.25 60.6875 C7.25 58.7075 7.25 56.7275 7.25 54.6875 C6.75371094 55.09742188 6.25742187 55.50734375 5.74609375 55.9296875 C-1.01430341 61.29182415 -7.10929872 63.30791738 -15.7734375 63.12890625 C-23.49692428 61.98355979 -30.85839954 57.87712451 -35.57421875 51.6171875 C-41.45825153 41.96033636 -42.5719166 32.84704368 -41.75 21.6875 C-40.895285 18.30771267 -39.60212558 15.62774937 -37.75 12.6875 C-37.3375 11.99140625 -36.925 11.2953125 -36.5 10.578125 C-28.56027634 -1.42168463 -13.14813265 -6.31793387 0 0 Z " fill="#0F2E51" transform="translate(698.75,429.3125)"/>
<path d="M0 0 C0.66 0 1.32 0 2 0 C2.16286753 10.84607271 1.75760419 21.5095826 0.75 32.3125 C0.6501329 33.4062645 0.6501329 33.4062645 0.54824829 34.52212524 C-1.81669231 60.21181068 -4.87723613 86.05157038 -15 110 C-17.38564077 109.42415568 -19.66682784 108.77772405 -22 108 C-23.64371491 107.90670066 -25.29114677 107.87004856 -26.9375 107.875 C-27.79214844 107.87242187 -28.64679688 107.86984375 -29.52734375 107.8671875 C-31.82680852 107.99069746 -33.79640348 108.35579313 -36 109 C-39.50929804 101.11827559 -42.80148049 93.36980236 -45 85 C-48.00927029 85.2447183 -49.45194931 85.47405583 -52 87 C-54.78688848 90.72739447 -56.75455938 94.836937 -58.8125 99 C-60.02887042 101.36253423 -61.24632531 103.72451042 -62.46484375 106.0859375 C-63.05894043 107.25479492 -63.65303711 108.42365234 -64.26513672 109.62792969 C-66.69647488 114.35374487 -69.26974868 118.9934421 -71.875 123.625 C-72.68501272 125.07545557 -73.49492188 126.52596897 -74.3046875 127.9765625 C-75.14386719 129.47316406 -75.14386719 129.47316406 -76 131 C-74.68 131.66 -73.36 132.32 -72 133 C-72.66 133.33 -73.32 133.66 -74 134 C-73.34 134.33 -72.68 134.66 -72 135 C-72 135.66 -72 136.32 -72 137 C-71.01 137 -70.02 137 -69 137 C-69 137.66 -69 138.32 -69 139 C-70.30710937 139.17595703 -70.30710937 139.17595703 -71.640625 139.35546875 C-78.58670553 140.95667562 -82.54161335 142.74450712 -86.49609375 148.90234375 C-89.12787669 153.43481511 -91.51948405 158.08306747 -93.7800293 162.81103516 C-95 165 -95 165 -98 168 C-98.33 165.03 -98.66 162.06 -99 159 C-99.99 159.99 -100.98 160.98 -102 162 C-101.41892368 158.2397015 -100.34800504 155.46964968 -98.4375 152.1875 C-97.98246094 151.39730469 -97.52742188 150.60710937 -97.05859375 149.79296875 C-96.70925781 149.20128906 -96.35992187 148.60960937 -96 148 C-96.74765625 148.2165625 -97.4953125 148.433125 -98.265625 148.65625 C-99.74289062 149.07390625 -99.74289062 149.07390625 -101.25 149.5 C-102.71179688 149.91765625 -102.71179688 149.91765625 -104.203125 150.34375 C-107 151 -107 151 -111 151 C-111.33 148.36 -111.66 145.72 -112 143 C-111.35562988 142.85191895 -110.71125977 142.70383789 -110.04736328 142.55126953 C-96.44039329 139.57613783 -96.44039329 139.57613783 -85.7734375 131.41015625 C-83.5977301 127.72910406 -81.95311606 123.81422024 -80.29931641 119.87695312 C-77.93888829 114.65048094 -75.02949643 109.70987551 -72.20019531 104.72671509 C-69.99165919 100.82470616 -67.82942104 96.89671861 -65.66040039 92.97265625 C-64.59715048 91.06909341 -63.51705929 89.17478092 -62.41577148 87.29296875 C-61.71883179 86.09414063 -61.71883179 86.09414063 -61.0078125 84.87109375 C-60.60062988 84.18587646 -60.19344727 83.50065918 -59.77392578 82.79467773 C-58.72914983 80.86440377 -58.72914983 80.86440377 -59.6875 78.125 C-60.120625 77.09375 -60.55375 76.0625 -61 75 C-61.76422617 70.14491607 -62.12741672 65.84861018 -59.50390625 61.546875 C-54.03663648 55.22712034 -54.03663648 55.22712034 -49.86328125 54.76171875 C-43.62061053 54.58007902 -40.0251442 55.20550336 -35 59 C-31.08826364 64.33502072 -31.14450879 69.60163866 -32 76 C-34.0625 78.875 -34.0625 78.875 -36 81 C-35.6333099 86.1031039 -33.7769459 90.65475135 -31.9375 95.375 C-31.51500977 96.47908203 -31.51500977 96.47908203 -31.08398438 97.60546875 C-30.39433382 99.4055736 -29.69786068 101.2030621 -29 103 C-26.27100257 97.15214837 -24.59213779 91.24416541 -23 85 C-22.62875 83.59041016 -22.62875 83.59041016 -22.25 82.15234375 C-18.4810416 67.56725996 -16.41566014 53.48779703 -15.4375 38.5 C-15.26930825 35.96187756 -15.0980846 33.42413025 -14.91773987 30.88684082 C-14.806926 29.32573355 -14.70286817 27.76412517 -14.60704041 26.20202637 C-14.09853233 18.99533271 -13.08428923 13.36280641 -7.5625 8.3125 C-4.22873569 5.22112622 -4.22873569 5.22112622 -1.33984375 1.73046875 C-0.89769531 1.15941406 -0.45554687 0.58835937 0 0 Z " fill="#0F3052" transform="translate(451,378)"/>
<path d="M0 0 C6.7552365 4.33354794 10.35781129 11.04381811 13.375 18.3125 C14.30519125 23.80062839 14 29.43359999 14 35 C-0.85 35.33 -15.7 35.66 -31 36 C-28.65696655 41.77675067 -28.65696655 41.77675067 -25.5625 43.875 C-19.84212773 45.68143335 -13.4500382 46.32281258 -7.73828125 44.1328125 C-5.65464272 42.97752502 -5.65464272 42.97752502 -3 41 C-2.34 40.67 -1.68 40.34 -1 40 C1.6015625 41.43359375 1.6015625 41.43359375 4.625 43.4375 C5.62789062 44.09621094 6.63078125 44.75492187 7.6640625 45.43359375 C8.43492187 45.95050781 9.20578125 46.46742188 10 47 C9.24467601 51.22253413 7.54453273 52.91105724 4.26953125 55.5390625 C-3.94481973 60.82678585 -13.42583555 62.18021147 -23 61 C-30.50515142 59.11044278 -37.99976364 55.2522434 -42.53515625 48.82421875 C-48.22729981 38.95009217 -49.4913578 28.69054864 -47.5703125 17.49609375 C-44.9956585 9.62909542 -39.12056184 3.11973943 -32.08984375 -1.02734375 C-21.45603917 -5.97653504 -10.39182473 -5.19591237 0 0 Z " fill="#143254" transform="translate(897,431)"/>
<path d="M0 0 C7.10425598 2.25871082 13.99241149 4.93076377 20.90139771 7.72677612 C24.20795025 9.06459325 27.51823046 10.39313409 30.828125 11.72265625 C31.84345055 12.13083336 31.84345055 12.13083336 32.87928772 12.54725647 C39.92704169 15.37798004 46.9925538 18.16274908 54.0625 20.9375 C55.17149658 21.37320312 56.28049316 21.80890625 57.4230957 22.2578125 C64.93630618 25.20439176 72.46436754 28.11127671 80 31 C80 35.01553568 78.62345143 35.9017698 75.875 38.75 C75.10929688 39.56984375 74.34359375 40.3896875 73.5546875 41.234375 C71 43 71 43 68.45483398 42.84716797 C63.83857902 41.71520523 59.56427973 40.00169283 55.16796875 38.2109375 C54.21795486 37.82942535 53.26794098 37.44791321 52.28913879 37.05484009 C49.25294754 35.8338768 46.22023943 34.60450853 43.1875 33.375 C41.19097246 32.57107485 39.19422952 31.76768439 37.19726562 30.96484375 C25.77482231 26.366532 14.37738916 21.7086109 3 17 C5.17831977 19.68594177 7.36433218 22.36332521 9.57421875 25.0234375 C11.02305431 26.80123573 12.43624023 28.61054372 13.76953125 30.4765625 C16.91023866 34.69284864 16.91023866 34.69284864 21.66796875 36.5703125 C23.57869939 36.68892736 25.49224744 36.76915688 27.40625 36.80859375 C31.15252857 37.08505105 33.2453518 38.52787982 36 41 C37.81323892 43.94340838 38.25146628 46.12576643 38.1875 49.5625 C38.18105469 50.32691406 38.17460937 51.09132813 38.16796875 51.87890625 C38 54 38 54 37 57 C38.93377791 59.68132631 41.1114807 62.06235085 43.3125 64.52734375 C45 67 45 67 44.84765625 69.20703125 C43.87366012 71.26723505 42.71148472 72.51175242 41 74 C37.29897951 72.5356832 35.90043763 70.66329055 33.75 67.375 C31.47856716 64.09423994 31.47856716 64.09423994 28.015625 62.55078125 C26.67359421 62.64181047 25.33374332 62.77468593 24 62.94921875 C20.36860937 63.04142203 17.94402761 60.96268507 15 59 C15 58.34 15 57.68 15 57 C13.79988281 57.43570313 12.59976563 57.87140625 11.36328125 58.3203125 C2.66514807 61.44111117 -6.02238524 64.37347566 -14.9375 66.8125 C-25.13671251 69.60978546 -35.08801696 73.04731559 -45.05249023 76.57348633 C-60.45348302 82 -60.45348302 82 -67 82 C-67.33 79.69 -67.66 77.38 -68 75 C-61.36530234 71.85823985 -54.63742426 69.45227859 -47.640625 67.25 C-46.57438904 66.91000977 -45.50815308 66.57001953 -44.40960693 66.21972656 C-41.02457567 65.14168403 -37.63732789 64.07080151 -34.25 63 C-31.99204231 62.28170625 -29.73422847 61.56296013 -27.4765625 60.84375 C0.80822016 51.84421763 0.80822016 51.84421763 11 49 C12.26376631 44.56986658 12.26376631 44.56986658 11.08642578 40.27099609 C9.6571904 38.48458279 8.1499856 36.83487752 6.5625 35.1875 C5.45330887 33.96716126 4.34524121 32.74580047 3.23828125 31.5234375 C2.68865723 30.92885742 2.1390332 30.33427734 1.57275391 29.72167969 C-0.62098678 27.3202113 -2.69725577 24.83497129 -4.75 22.3125 C-5.38421875 21.54550781 -6.0184375 20.77851563 -6.671875 19.98828125 C-8 18 -8 18 -8 15 C-7.01 14.67 -6.02 14.34 -5 14 C-1.77465309 9.25684278 -0.46425849 5.68716647 0 0 Z " fill="#113153" transform="translate(342,310)"/>
<path d="M0 0 C3.99313186 1.44593117 7.35495899 3.36329568 10.921875 5.66015625 C12.02917969 6.37107422 13.13648438 7.08199219 14.27734375 7.81445312 C14.84694824 8.18320557 15.41655273 8.55195801 16.00341797 8.93188477 C17.75600906 10.06638984 19.51238063 11.19483821 21.26953125 12.32226562 C29.84124846 17.84124846 29.84124846 17.84124846 31 19 C31.29632219 20.91289178 31.56203716 22.83056514 31.8125 24.75 C32.58465716 29.78090088 33.75671455 32.08568998 37 36 C36.61851888 41.06975521 35.27959914 45.69096948 33.62890625 50.46875 C33.39076706 51.17477356 33.15262787 51.88079712 32.90727234 52.60821533 C32.39598237 54.12229996 31.88201658 55.6354832 31.36560059 57.14782715 C29.9985439 61.15175105 28.65098014 65.16224183 27.30078125 69.171875 C27.02575775 69.98682434 26.75073425 70.80177368 26.46737671 71.64141846 C23.65551874 79.98758463 20.94209828 88.36456768 18.25 96.75 C18.03199738 97.42828857 17.81399475 98.10657715 17.58938599 98.80541992 C16.39044148 102.53615353 15.19390323 106.26765017 14 110 C12 109 12 109 10.88671875 106.3515625 C5.04190054 88.1888375 1.7858787 68.98466707 0 50 C-0.08685059 49.11763672 -0.17370117 48.23527344 -0.26318359 47.32617188 C-1.05396418 38.44143708 -1.15378537 29.60519274 -1.13037109 20.69335938 C-1.12491686 18.21218004 -1.13039914 15.73117452 -1.13671875 13.25 C-1.13605948 11.6718746 -1.13478148 10.09374931 -1.1328125 8.515625 C-1.13483673 7.77411194 -1.13686096 7.03259888 -1.13894653 6.26861572 C-1.11501149 1.11501149 -1.11501149 1.11501149 0 0 Z " fill="#FAFCFD" transform="translate(214,369)"/>
<path d="M0 0 C4.95 0 9.9 0 15 0 C15 16.17 15 32.34 15 49 C15.66 49 16.32 49 17 49 C17.33257813 48.22076172 17.33257813 48.22076172 17.671875 47.42578125 C19.89276748 43.36938646 22.87024127 39.88475066 25.78100586 36.30419922 C27.84172221 33.76532214 29.78931445 31.36538069 31.42578125 28.52734375 C32.73595431 26.33471736 33.84755943 25.36655075 36 24 C38.08325195 23.63256836 38.08325195 23.63256836 40.36328125 23.58984375 C41.17917725 23.5729248 41.99507324 23.55600586 42.83569336 23.53857422 C46.56979538 23.57375757 50.27371367 23.75392449 54 24 C52.67353054 26.85906882 51.18097205 29.18514288 49.171875 31.609375 C48.61886719 32.28226562 48.06585937 32.95515625 47.49609375 33.6484375 C46.91988281 34.34195313 46.34367188 35.03546875 45.75 35.75 C43.48535758 38.4883952 41.23719755 41.23914787 39 44 C38.40767578 44.71220703 37.81535156 45.42441406 37.20507812 46.15820312 C36.36879883 47.20137695 36.36879883 47.20137695 35.515625 48.265625 C35.00805664 48.88727539 34.50048828 49.50892578 33.97753906 50.14941406 C32.81160998 51.95089509 32.81160998 51.95089509 33.17871094 54.01660156 C34.07878995 56.19027633 35.11135695 57.66978119 36.625 59.46875 C37.16294189 60.11706787 37.70088379 60.76538574 38.25512695 61.43334961 C38.83093506 62.11534424 39.40674316 62.79733887 40 63.5 C41.18272283 64.9269506 42.36369909 66.35535054 43.54296875 67.78515625 C44.12739746 68.4930127 44.71182617 69.20086914 45.31396484 69.93017578 C47.71734374 72.88063136 50.0318432 75.89159802 52.3125 78.9375 C53.03050781 79.89527344 53.74851562 80.85304688 54.48828125 81.83984375 C56 84 56 84 56 85 C49.64884307 86.09689491 43.24166691 87.03953746 37 85 C31.671412 80.99190757 28.09835405 75.19288361 24.66479492 69.56054688 C22.29385241 65.91390586 19.60978337 62.47971117 17 59 C16.67 67.58 16.34 76.16 16 85 C10.72 85 5.44 85 0 85 C0 56.95 0 28.9 0 0 Z " fill="#103052" transform="translate(792,405)"/>
<path d="M0 0 C21.12 0 42.24 0 64 0 C64 5.28 64 10.56 64 16 C56.08 16 48.16 16 40 16 C40 38.77 40 61.54 40 85 C34.39 85 28.78 85 23 85 C23 62.56 23 40.12 23 17 C15.41 17 7.82 17 0 17 C0 11.39 0 5.78 0 0 Z " fill="#0D2D51" transform="translate(598,405)"/>
<path d="M0 0 C5.08750499 2.71141979 8.41873945 6.11359875 10.875 11.3125 C9.46333114 12.29885837 8.04543816 13.27631255 6.625 14.25 C5.83609375 14.79527344 5.0471875 15.34054687 4.234375 15.90234375 C2.02725928 17.22149735 0.42629933 18.04249208 -2.125 18.3125 C-2.681875 17.69375 -3.23875 17.075 -3.8125 16.4375 C-6.81494669 13.67849493 -9.05265723 13.60842791 -13.00390625 13.1953125 C-15.43041881 13.14925549 -15.43041881 13.14925549 -18.125 15.3125 C-17.795 16.9625 -17.465 18.6125 -17.125 20.3125 C-16.21790283 20.59130005 -16.21790283 20.59130005 -15.29248047 20.87573242 C-12.52354237 21.73588982 -9.76196065 22.61770702 -7 23.5 C-6.04867187 23.79197266 -5.09734375 24.08394531 -4.1171875 24.38476562 C2.78674581 26.61416076 7.49820088 28.9057546 11.75 35 C13.66594933 40.64140635 13.66338364 45.90097357 11.8125 51.5625 C7.23817526 58.05508995 1.72035408 61.85289924 -6.125 63.3125 C-16.75069093 64.33392823 -25.08721262 62.57283969 -33.4609375 55.8671875 C-35.56826533 53.89836948 -36.95426414 51.94665568 -38.125 49.3125 C-38.125 48.6525 -38.125 47.9925 -38.125 47.3125 C-36.38377451 46.27677104 -34.63163405 45.2593748 -32.875 44.25 C-31.90046875 43.68152344 -30.9259375 43.11304688 -29.921875 42.52734375 C-27.125 41.3125 -27.125 41.3125 -24.89453125 41.46875 C-23.125 42.3125 -23.125 42.3125 -21.0625 44.875 C-17.14700719 48.12402595 -14.4857011 47.7595612 -9.55078125 47.5859375 C-7.11857155 47.45270769 -7.11857155 47.45270769 -5.125 46.3125 C-5.125 44.6625 -5.125 43.0125 -5.125 41.3125 C-6.56149084 40.72668595 -7.99927825 40.14405156 -9.4375 39.5625 C-10.34757813 39.19382812 -11.25765625 38.82515625 -12.1953125 38.4453125 C-15.04274158 37.34430659 -17.91371037 36.39305669 -20.8125 35.4375 C-26.44273003 33.41189316 -31.02124382 30.61334302 -34.28515625 25.4921875 C-36.02834373 20.96800791 -35.63540768 16.06567156 -35.125 11.3125 C-32.56352206 5.89398897 -28.26274447 1.87863424 -22.88671875 -0.8046875 C-15.92394262 -3.03041226 -6.76959566 -2.81496655 0 0 Z " fill="#112F51" transform="translate(769.125,428.6875)"/>
<path d="M0 0 C5.4401727 4.57051809 5.4401727 4.57051809 6.69921875 8.34765625 C0.75921875 11.81265625 0.75921875 11.81265625 -5.30078125 15.34765625 C-6.29078125 14.52265625 -7.28078125 13.69765625 -8.30078125 12.84765625 C-12.46511586 9.84526429 -15.26047924 9.83508316 -20.30078125 10.34765625 C-21.29078125 10.84265625 -21.29078125 10.84265625 -22.30078125 11.34765625 C-22.30078125 12.99765625 -22.30078125 14.64765625 -22.30078125 16.34765625 C-17.35727039 18.69457555 -12.49346433 20.61765651 -7.23828125 22.16015625 C-1.42197734 24.02702618 2.62287964 26.81342699 6.69921875 31.34765625 C8.92756723 35.80435322 8.19128964 41.51178717 7.69921875 46.34765625 C6.07773972 50.99395715 3.49320353 54.13468601 -0.67578125 56.72265625 C-10.11943016 60.95601611 -20.32146168 62.22764767 -30.1953125 58.46875 C-35.19260905 55.80785184 -39.17826694 52.03142772 -42.30078125 47.34765625 C-42.30078125 46.35765625 -42.30078125 45.36765625 -42.30078125 44.34765625 C-40.25390625 42.70703125 -40.25390625 42.70703125 -37.55078125 41.09765625 C-36.6690625 40.55625 -35.78734375 40.01484375 -34.87890625 39.45703125 C-32.30078125 38.34765625 -32.30078125 38.34765625 -30.1328125 38.515625 C-28.30078125 39.34765625 -28.30078125 39.34765625 -25.73828125 41.91015625 C-22.07502154 45.17789692 -18.39801952 44.78826854 -13.69140625 44.62109375 C-11.28921429 44.48465426 -11.28921429 44.48465426 -9.30078125 43.34765625 C-9.30078125 41.69765625 -9.30078125 40.04765625 -9.30078125 38.34765625 C-10.28304687 38.00154297 -10.28304687 38.00154297 -11.28515625 37.6484375 C-16.45029958 35.80270125 -21.58418066 33.88808676 -26.67578125 31.84765625 C-28.11050781 31.2753125 -28.11050781 31.2753125 -29.57421875 30.69140625 C-33.95641696 28.53169825 -36.72533828 26.37948502 -39.11328125 22.09765625 C-40.80386357 16.75897525 -41.07809981 12.72819434 -39.30078125 7.28515625 C-35.81942019 2.17190719 -31.68395026 -1.61813833 -25.98828125 -4.08984375 C-16.80268818 -5.49103591 -7.80767211 -5.60720764 0 0 Z " fill="#112F52" transform="translate(1002.30078125,431.65234375)"/>
<path d="M0 0 C5.80452726 1.76630977 8.18175754 5.1509676 11.453125 10.05078125 C12.83627087 11.79011318 14.23213823 13.51940573 15.640625 15.23828125 C16.29289062 16.07359375 16.94515625 16.90890625 17.6171875 17.76953125 C19.17296289 19.70266492 20.79767428 21.45389045 22.515625 23.23828125 C24.453125 26.05078125 24.453125 26.05078125 24.265625 29.92578125 C23.9975 30.95703125 23.729375 31.98828125 23.453125 33.05078125 C18.64097026 34.9555925 13.79470748 36.58842599 8.84765625 38.109375 C1.34263864 40.43326682 -6.12834419 42.85706335 -13.59765625 45.29296875 C-17.14261539 46.44464857 -20.68785598 47.5954585 -24.2331543 48.74609375 C-26.67484388 49.54042783 -29.11558401 50.3376857 -31.55541992 51.13769531 C-35.10855747 52.30182129 -38.66517436 53.4546985 -42.22265625 54.60546875 C-43.31628983 54.96679901 -44.4099234 55.32812927 -45.53669739 55.70040894 C-46.54592758 56.02469879 -47.55515778 56.34898865 -48.5949707 56.68310547 C-49.4815889 56.97224823 -50.36820709 57.26139099 -51.2816925 57.55929565 C-53.546875 58.05078125 -53.546875 58.05078125 -56.546875 57.05078125 C-55.80824219 56.20257813 -55.06960938 55.354375 -54.30859375 54.48046875 C-47.61333662 46.75371696 -41.16724637 38.88186191 -34.90576172 30.80078125 C-33.54326431 29.04613134 -32.17359041 27.29737267 -30.80078125 25.55078125 C-30.1197937 24.68283936 -30.1197937 24.68283936 -29.42504883 23.79736328 C-28.50993836 22.63762895 -27.58922586 21.48229206 -26.6628418 20.33154297 C-24.25674343 17.32551444 -22.02316718 14.29686648 -19.9375 11.05859375 C-14.48145963 2.85576823 -10.64148819 -1.06630297 0 0 Z " fill="#FBFCFC" transform="translate(330.546875,325.94921875)"/>
<path d="M0 0 C0.99 0.495 0.99 0.495 2 1 C-5.28120472 10.28888984 -12.56526745 19.57315268 -20.03125 28.71484375 C-20.57531494 29.38273926 -21.11937988 30.05063477 -21.67993164 30.73876953 C-22.8092587 32.12037748 -23.94387155 33.49768176 -25.08374023 34.87060547 C-27.76469658 38.12392687 -30.2979582 41.36175543 -32.56640625 44.91796875 C-34.78215005 48.31770123 -36.90217423 51.32092103 -40 54 C-43.91042282 54.78798391 -47.0446868 54.7344996 -50.99609375 54.26171875 C-54.18051239 53.66907801 -54.18051239 53.66907801 -57 56 C-59.91949216 55.63284571 -62.0457666 54.52722812 -64.50390625 52.9609375 C-65.15746094 52.54827637 -65.81101563 52.13561523 -66.484375 51.71044922 C-67.17015625 51.26975098 -67.8559375 50.82905273 -68.5625 50.375 C-69.26761719 49.92785645 -69.97273438 49.48071289 -70.69921875 49.02001953 C-72.80260405 47.68484791 -74.90144739 46.34275012 -77 45 C-78.16498142 44.25981326 -79.33031326 43.52017757 -80.49609375 42.78125 C-83.00035682 41.19206875 -85.50168022 39.59850122 -88 38 C-87.48925781 36.21020508 -87.48925781 36.21020508 -86 34 C-83.38141127 32.69768803 -80.90285389 31.64127947 -78.171875 30.63671875 C-77.36702667 30.32766602 -76.56217834 30.01861328 -75.73294067 29.70019531 C-73.07663225 28.68320486 -70.413445 27.68563269 -67.75 26.6875 C-65.90711746 25.98504506 -64.06483801 25.28100598 -62.22314453 24.57543945 C-58.40420016 23.11307227 -54.5831259 21.65647633 -50.76074219 20.203125 C-42.59776759 17.09086404 -34.47288105 13.88260402 -26.35021973 10.66690063 C-23.91761108 9.70436045 -21.48385425 8.74477842 -19.04980469 7.78588867 C-17.55139313 7.19459793 -16.05301871 6.60321306 -14.5546875 6.01171875 C-13.88970245 5.74987793 -13.22471741 5.48803711 -12.5395813 5.21826172 C-9.37332928 3.96548031 -6.25094261 2.65951953 -3.15283203 1.24926758 C-2.11239746 0.83700928 -1.07196289 0.42475098 0 0 Z " fill="#F8FBFB" transform="translate(308,325)"/>
<path d="M0 0 C3.52426477 2.34950984 5.42221746 4.35987862 7.8125 7.875 C7.9453125 10.5703125 7.9453125 10.5703125 7.8125 12.875 C9.16794922 12.42447266 9.16794922 12.42447266 10.55078125 11.96484375 C11.73027344 11.58457031 12.90976562 11.20429687 14.125 10.8125 C15.29675781 10.42964844 16.46851563 10.04679688 17.67578125 9.65234375 C20.8125 8.875 20.8125 8.875 23.8125 9.875 C9.26740654 36.43509853 9.26740654 36.43509853 3 46.5625 C2.59861816 47.21992187 2.19723633 47.87734375 1.78369141 48.5546875 C0.851502 50.03313581 -0.1593679 51.46158892 -1.1875 52.875 C-1.8475 52.875 -2.5075 52.875 -3.1875 52.875 C-3.1875 44.955 -3.1875 37.035 -3.1875 28.875 C-5.8275 28.875 -8.4675 28.875 -11.1875 28.875 C-11.1875 36.795 -11.1875 44.715 -11.1875 52.875 C-11.8475 52.875 -12.5075 52.875 -13.1875 52.875 C-14.46734827 50.97640959 -15.64766923 49.01059135 -16.78515625 47.0234375 C-17.13831406 46.41295563 -17.49147186 45.80247375 -17.85533142 45.17349243 C-18.99396916 43.20297588 -20.12255677 41.22693956 -21.25 39.25 C-22.71545994 36.69264777 -24.18595408 34.13825959 -25.66015625 31.5859375 C-26.02501129 30.95234314 -26.38986633 30.31874878 -26.76577759 29.66595459 C-29.81694635 24.41083528 -33.06964481 19.30130588 -36.44190979 14.24667358 C-39.1875 10.08345831 -39.1875 10.08345831 -39.1875 7.875 C-38.54683594 8.06835938 -37.90617187 8.26171875 -37.24609375 8.4609375 C-32.23639015 9.9690748 -27.22210143 11.45217786 -22.1875 12.875 C-21.9709375 11.699375 -21.9709375 11.699375 -21.75 10.5 C-21.1875 7.875 -21.1875 7.875 -20.1875 5.875 C-20.8475 5.545 -21.5075 5.215 -22.1875 4.875 C-14.42165314 0.07844753 -9.0530207 -3.19518378 0 0 Z " fill="#0FB9B2" transform="translate(332.1875,516.125)"/>
<path d="M0 0 C5.61 0 11.22 0 17 0 C17 28.05 17 56.1 17 85 C11.39 85 5.78 85 0 85 C0 56.95 0 28.9 0 0 Z " fill="#113052" transform="translate(572,405)"/>
<path d="M0 0 C0 5.94 0 11.88 0 18 C-1.52625 18.2475 -3.0525 18.495 -4.625 18.75 C-9.19535212 19.67572288 -12.42480741 20.87170649 -16 24 C-18.21299496 28.19226323 -18.33936043 32.28308357 -18.4140625 36.92578125 C-18.43342865 37.67337204 -18.4527948 38.42096283 -18.4727478 39.19120789 C-18.53223918 41.56485806 -18.57880592 43.93855754 -18.625 46.3125 C-18.66320789 47.92775482 -18.70226125 49.54298987 -18.7421875 51.15820312 C-18.83949805 55.10536238 -18.91930522 59.05232655 -19 63 C-24.28 63 -29.56 63 -35 63 C-35 42.87 -35 22.74 -35 2 C-29.72 2 -24.44 2 -19 2 C-18.67 4.31 -18.34 6.62 -18 9 C-17.278125 8.236875 -16.55625 7.47375 -15.8125 6.6875 C-10.80666061 1.90414236 -6.86603366 0 0 0 Z " fill="#112F51" transform="translate(956,427)"/>
<path d="M0 0 C0 9.39820931 -13.72523627 20.46395657 -20 27 C-20.4630957 27.49032715 -20.92619141 27.9806543 -21.40332031 28.48583984 C-30.57991836 38.1884217 -40.79130783 45.93776694 -51.8125 53.375 C-52.41030273 53.77984619 -53.00810547 54.18469238 -53.62402344 54.60180664 C-57.92424592 57.44747235 -62.35453323 59.76159027 -67 62 C-65.35552213 55.90215348 -62.19325486 50.74091207 -59.0625 45.3125 C-57.88131568 43.26052875 -56.70032935 41.20844352 -55.51953125 39.15625 C-54.92736816 38.12886719 -54.33520508 37.10148438 -53.72509766 36.04296875 C-52.10599964 33.18697701 -50.54874255 30.30703875 -49.01171875 27.40625 C-48.54435303 26.54475342 -48.0769873 25.68325684 -47.59545898 24.7956543 C-46.7244521 23.18814005 -45.87231537 21.5701965 -45.04321289 19.94067383 C-41.76208567 13.99350712 -38.3622733 12.06624469 -32 10 C-30.77168457 9.59241455 -29.54336914 9.1848291 -28.27783203 8.76489258 C-24.01320765 7.37533989 -19.72689564 6.06063551 -15.4375 4.75 C-13.93669227 4.28696588 -12.43603983 3.82342814 -10.93554688 3.359375 C-7.29212837 2.23377063 -3.64667792 1.11499718 0 0 Z " fill="#F7FAFB" transform="translate(408,508)"/>
<path d="M0 0 C8.33048249 2.20783729 16.59242417 4.59860684 24.8125 7.1875 C26.59430664 7.71053711 26.59430664 7.71053711 28.41210938 8.24414062 C36.02648579 10.67407903 40.10950642 12.97907344 44 20 C44.39195557 20.63123779 44.78391113 21.26247559 45.18774414 21.9128418 C46.37605824 23.83652963 47.50464098 25.78604298 48.625 27.75 C49.48069975 29.22978655 50.33752247 30.70892415 51.1953125 32.1875 C51.64422852 32.96222656 52.09314453 33.73695313 52.55566406 34.53515625 C54.09525849 37.16256419 55.66430341 39.77041691 57.2421875 42.375 C57.78407715 43.26993164 58.3259668 44.16486328 58.88427734 45.08691406 C59.94185931 46.8300546 61.00198374 48.57165575 62.06494141 50.31152344 C64.37010718 54.1204587 66.55328067 57.76317911 68 62 C52.93455069 54.17071138 39.82015576 44.52262284 27.3125 33.08984375 C25.35014486 31.31643159 23.35338591 29.61849755 21.3125 27.9375 C14.9466752 22.4726388 10.03642087 15.8324739 5.0625 9.125 C4.56524414 8.45799072 4.06798828 7.79098145 3.55566406 7.10375977 C0 2.241159 0 2.241159 0 0 Z " fill="#F8FAFB" transform="translate(242,508)"/>
<path d="M0 0 C1.98 1.32 3.96 2.64 6 4 C5.40569887 7.83313504 4.27609734 10.71391147 2.41015625 14.10546875 C1.87737061 15.08128906 1.34458496 16.05710937 0.7956543 17.0625 C0.22371338 18.09375 -0.34822754 19.125 -0.9375 20.1875 C-1.51781982 21.24582031 -2.09813965 22.30414063 -2.69604492 23.39453125 C-4.45666275 26.60048281 -6.22690418 29.80093557 -8 33 C-8.52561523 33.95084473 -9.05123047 34.90168945 -9.59277344 35.88134766 C-12.38288404 40.9278165 -15.18502587 45.96736002 -18 51 C-16.68 51.66 -15.36 52.32 -14 53 C-14.99 53.495 -14.99 53.495 -16 54 C-15.01 54.495 -15.01 54.495 -14 55 C-14 55.66 -14 56.32 -14 57 C-13.01 57 -12.02 57 -11 57 C-11 57.66 -11 58.32 -11 59 C-11.87140625 59.11730469 -12.7428125 59.23460937 -13.640625 59.35546875 C-20.58670553 60.95667562 -24.54161335 62.74450712 -28.49609375 68.90234375 C-31.12787669 73.43481511 -33.51948405 78.08306747 -35.7800293 82.81103516 C-37 85 -37 85 -40 88 C-40.33 85.03 -40.66 82.06 -41 79 C-41.99 79.99 -42.98 80.98 -44 82 C-43.41892368 78.2397015 -42.34800504 75.46964968 -40.4375 72.1875 C-39.98246094 71.39730469 -39.52742188 70.60710937 -39.05859375 69.79296875 C-38.70925781 69.20128906 -38.35992187 68.60960937 -38 68 C-38.74765625 68.2165625 -39.4953125 68.433125 -40.265625 68.65625 C-41.25046875 68.9346875 -42.2353125 69.213125 -43.25 69.5 C-44.22453125 69.7784375 -45.1990625 70.056875 -46.203125 70.34375 C-49 71 -49 71 -53 71 C-53.33 68.36 -53.66 65.72 -54 63 C-53.35562988 62.85191895 -52.71125977 62.70383789 -52.04736328 62.55126953 C-38.44039329 59.57613783 -38.44039329 59.57613783 -27.7734375 51.41015625 C-25.59699535 47.72755623 -23.94976322 43.81128748 -22.29492188 39.87255859 C-19.94897825 34.66849135 -17.06590932 29.74499135 -14.25512695 24.78164673 C-12.65659285 21.94815087 -11.08974139 19.09711386 -9.515625 16.25 C-6.45595581 10.76346449 -3.27586119 5.35995017 0 0 Z " fill="#102F50" transform="translate(393,458)"/>
<path d="M0 0 C1.4540625 0.0309375 1.4540625 0.0309375 2.9375 0.0625 C4.47676208 3.63819376 5.99062844 7.22409808 7.5 10.8125 C8.15645508 12.33617187 8.15645508 12.33617187 8.82617188 13.890625 C9.44008789 15.36015625 9.44008789 15.36015625 10.06640625 16.859375 C10.44869385 17.76010742 10.83098145 18.66083984 11.22485352 19.58886719 C12.00370264 22.29229279 11.94141649 23.47277691 10.9375 26.0625 C10.463125 26.84625 9.98875 27.63 9.5 28.4375 C7.78562621 31.00329769 7.78562621 31.00329769 7.28295898 34.05102539 C5.9375 37.0625 5.9375 37.0625 2.82055664 38.67749023 C1.50424525 39.1010395 0.17899422 39.49745107 -1.15234375 39.87109375 C-1.85267227 40.08693619 -2.55300079 40.30277863 -3.27455139 40.52516174 C-4.75305627 40.97581085 -6.23519127 41.41469625 -7.72045898 41.8425293 C-9.99603556 42.49885657 -12.25851775 43.19023752 -14.52148438 43.88867188 C-15.96030971 44.32240058 -17.39974531 44.75411102 -18.83984375 45.18359375 C-19.51804672 45.3886705 -20.19624969 45.59374725 -20.89500427 45.80503845 C-24.18400593 46.74360754 -25.73966477 47.17011174 -29.0625 46.0625 C-4.7208767 0.09634442 -4.7208767 0.09634442 0 0 Z " fill="#F8FBFC" transform="translate(403.0625,462.9375)"/>
<path d="M0 0 C4.41026006 2.45014448 7.08812558 5.30125117 9.375 9.875 C10.09839661 16.91922273 9.81330792 23.12012979 5.375 28.875 C0.17704084 33.01215117 -3.98306438 34.52830514 -10.625 33.875 C-15.57988139 31.81354748 -19.62140617 28.84484111 -21.99609375 23.95703125 C-23.54992321 18.81298715 -23.64478376 13.58239051 -21.7421875 8.53125 C-16.88784333 -0.0844072 -9.5464332 -2.96268616 0 0 Z " fill="#F8FAFB" transform="translate(695.625,443.125)"/>
<path d="M0 0 C2.4391388 2.24576241 4.05174197 4.54069542 5.71484375 7.40234375 C6.23062988 8.28341797 6.74641602 9.16449219 7.27783203 10.07226562 C8.09936768 11.49055664 8.09936768 11.49055664 8.9375 12.9375 C10.09954986 14.92619662 11.26232727 16.91446827 12.42578125 18.90234375 C13.01697754 19.91409668 13.60817383 20.92584961 14.21728516 21.96826172 C17.47068685 27.50109413 20.79735089 32.99012097 24.12866211 38.47631836 C26.60554193 42.57901232 28.93439652 46.67470949 31 51 C24.20578916 49.97869811 17.80212649 48.02820285 11.25 46 C9.38408203 45.47599609 9.38408203 45.47599609 7.48046875 44.94140625 C-1.3874013 42.15270718 -1.3874013 42.15270718 -3.19458008 38.75219727 C-3.69140625 36.31640625 -3.69140625 36.31640625 -3.81469727 33.99438477 C-3.80346663 31.73007612 -3.80346663 31.73007612 -6.1875 29.9375 C-6.785625 29.298125 -7.38375 28.65875 -8 28 C-7.68753795 21.40109906 -5.69973363 15.66402667 -3.4375 9.5 C-2.9434668 8.12328125 -2.9434668 8.12328125 -2.43945312 6.71875 C-1.63361112 4.47640702 -0.82036271 2.23706232 0 0 Z " fill="#F5F8F9" transform="translate(243,458)"/>
<path d="M0 0 C4.9710149 2.53240382 8.49430567 5.98861134 11 11 C11.85410169 17.56438159 11.02137509 22.07863124 7.38671875 27.6015625 C6.92910156 28.06304687 6.47148437 28.52453125 6 29 C5.01 29 4.02 29 3 29 C3 29.66 3 30.32 3 31 C-1.60131537 32.53377179 -6.34779492 32.90474832 -11.00390625 31.31640625 C-15.34882777 29.05479483 -17.89661548 26.3750398 -20 22 C-20.30423489 19.23694875 -20.19268487 16.79393066 -20 14 C-20.66 13.67 -21.32 13.34 -22 13 C-21.34 13 -20.68 13 -20 13 C-19.9175 12.278125 -19.835 11.55625 -19.75 10.8125 C-18.52973355 6.23650083 -16.19549836 3.80626634 -12.3125 1.1875 C-8.05979644 -0.33705411 -4.466996 -0.72177673 0 0 Z " fill="#0BB9B1" transform="translate(331,296)"/>
<path d="M0 0 C3.5625 1.8125 3.5625 1.8125 6 4 C6.61875 4.433125 7.2375 4.86625 7.875 5.3125 C9.70706064 8.06059096 9.1808844 10.80437559 9 14 C9.66 14.33 10.32 14.66 11 15 C7.15712508 26.24953329 7.15712508 26.24953329 2 29 C-3.14013787 30.87093141 -7.91099074 31.57553275 -13.20703125 29.96875 C-17.45831159 27.67176193 -19.52501349 23.42495952 -21 19 C-21.77158795 12.47312484 -20.91833416 8.29504617 -17 3 C-11.63469977 -0.93639725 -6.42777774 -0.80129479 0 0 Z " fill="#09BAB2" transform="translate(266,378)"/>
<path d="M0 0 C4.90881299 1.67263258 7.72345095 4.37389304 10 9 C10.91895207 14.62092348 11.05288796 20.25930704 7.8125 25.125 C3.64234252 29.89751356 -1.51812488 30.64820474 -7.6328125 31.15625 C-10 31 -10 31 -12.875 28.9375 C-13.57625 27.968125 -14.2775 26.99875 -15 26 C-15.763125 25.13375 -16.52625 24.2675 -17.3125 23.375 C-19.73571057 18.52857885 -20.14674577 14.30650984 -19 9 C-14.08563617 0.9838429 -9.13302462 -0.98439786 0 0 Z " fill="#08B9B2" transform="translate(409,433)"/>
<path d="M0 0 C3.09787893 1.1252979 4.81721175 2.44433572 6.828125 5.0390625 C8.49632977 10.53432526 9.22876568 16.25021008 7.01171875 21.69921875 C4.185502 26.09244677 0.99238237 28.17859387 -4.109375 29.5390625 C-9.12001736 29.90331132 -12.99217918 29.06533235 -17.046875 26.0390625 C-20.14131606 23.01675294 -21.43543021 20.1713462 -22.08984375 15.9140625 C-22.12424463 11.73091501 -21.10627731 8.20249724 -19.109375 4.5390625 C-13.45166552 -0.98065406 -7.63011623 -1.66732169 0 0 Z " fill="#0BB9B1" transform="translate(431.109375,485.4609375)"/>
<path d="M0 0 C3.34977251 0.95033788 6.67516302 1.96614558 10 3 C10.68707031 3.18175781 11.37414062 3.36351562 12.08203125 3.55078125 C14.94858208 4.46882694 16.69303625 5.47123018 18.2109375 8.0859375 C18.88449962 9.65082995 19.51054112 11.23738053 20.078125 12.84375 C21.82561623 16.93110237 24.01086796 18.00543398 28 20 C28 28.25 28 36.5 28 45 C27.34 45 26.68 45 26 45 C24.72015173 43.10140959 23.53983077 41.13559135 22.40234375 39.1484375 C22.04918594 38.53795563 21.69602814 37.92747375 21.33216858 37.29849243 C20.19353084 35.32797588 19.06494323 33.35193956 17.9375 31.375 C16.47204006 28.81764777 15.00154592 26.26325959 13.52734375 23.7109375 C13.16248871 23.07734314 12.79763367 22.44374878 12.42172241 21.79095459 C9.37055365 16.53583528 6.11785519 11.42630588 2.74559021 6.37167358 C0 2.20845831 0 2.20845831 0 0 Z " fill="#F3F9FA" transform="translate(293,524)"/>
<path d="M0 0 C-14.57678979 26.61797768 -14.57678979 26.61797768 -20.875 36.6875 C-21.28476074 37.34492187 -21.69452148 38.00234375 -22.11669922 38.6796875 C-23.04588583 40.14058653 -24.01755908 41.57436907 -25 43 C-25.33 43 -25.66 43 -26 43 C-26.17421117 38.91720499 -26.28082588 34.83536319 -26.375 30.75 C-26.42527344 29.59113281 -26.47554688 28.43226563 -26.52734375 27.23828125 C-26.58258046 24.05296425 -26.57423203 21.13486449 -26 18 C-23.08984375 15.35546875 -23.08984375 15.35546875 -20 14 C-18.05471326 11.38392473 -17.05539445 9.78167719 -16.82421875 6.51953125 C-16 4 -16 4 -13.1640625 2.3828125 C-11.99617188 1.96773437 -10.82828125 1.55265625 -9.625 1.125 C-8.46226562 0.69445312 -7.29953125 0.26390625 -6.1015625 -0.1796875 C-3 -1 -3 -1 0 0 Z " fill="#F3F9FA" transform="translate(356,526)"/>
<path d="M0 0 C2.49980399 2.49980399 3.04220059 4.60915929 4.1640625 7.9609375 C4.56367187 9.15460938 4.96328125 10.34828125 5.375 11.578125 C5.7875 12.83109375 6.2 14.0840625 6.625 15.375 C7.04523437 16.62023437 7.46546875 17.86546875 7.8984375 19.1484375 C8.29546875 20.3446875 8.6925 21.5409375 9.1015625 22.7734375 C9.46588379 23.87091309 9.83020508 24.96838867 10.20556641 26.09912109 C11 29 11 29 11 33 C3.74 33 -3.52 33 -11 33 C-9.10000908 25.51180049 -6.80856087 18.20541304 -4.375 10.875 C-4.06167725 9.9260083 -3.74835449 8.9770166 -3.42553711 7.99926758 C-3.12784424 7.11005615 -2.83015137 6.22084473 -2.5234375 5.3046875 C-2.25450684 4.50015137 -1.98557617 3.69561523 -1.70849609 2.86669922 C-1 1 -1 1 0 0 Z " fill="#F3F6F8" transform="translate(523,425)"/>
<path d="M0 0 C21.12 0 42.24 0 64 0 C64 5.28 64 10.56 64 16 C56.08 16 48.16 16 40 16 C40 15.67 40 15.34 40 15 C44.95 14.67 49.9 14.34 55 14 C55 13.67 55 13.34 55 13 C57.31 13 59.62 13 62 13 C62 9.37 62 5.74 62 2 C42.2 2 22.4 2 2 2 C2 5.63 2 9.26 2 13 C9.59 13 17.18 13 25 13 C24.67 36.76 24.34 60.52 24 85 C23.67 85 23.34 85 23 85 C23 62.56 23 40.12 23 17 C15.41 17 7.82 17 0 17 C0 11.39 0 5.78 0 0 Z " fill="#334962" transform="translate(598,405)"/>
<path d="M0 0 C4.50702212 2.9705373 6.44127601 5.57760404 7.75 10.8125 C-1.82 10.8125 -11.39 10.8125 -21.25 10.8125 C-20.25 4.8125 -20.25 4.8125 -17.9375 2.5625 C-17.050625 1.985 -16.16375 1.4075 -15.25 0.8125 C-14.651875 0.4 -14.05375 -0.0125 -13.4375 -0.4375 C-8.71534039 -2.05652615 -4.57184282 -1.67048103 0 0 Z " fill="#F6F9FA" transform="translate(887.25,442.1875)"/>
<path d="M0 0 C-0.33 0.99 -0.66 1.98 -1 3 C-1.99 3 -2.98 3 -4 3 C-4 3.66 -4 4.32 -4 5 C-2.02 5 -0.04 5 2 5 C2.33 5.99 2.66 6.98 3 8 C-12.84466019 14 -12.84466019 14 -20 14 C-20.33 11.69 -20.66 9.38 -21 7 C-5.96954315 0 -5.96954315 0 0 0 Z " fill="#133454" transform="translate(295,378)"/>
<path d="M0 0 C0.33 0 0.66 0 1 0 C1 23.1 1 46.2 1 70 C4.63 70 8.26 70 12 70 C11.98839844 68.54207031 11.97679687 67.08414063 11.96484375 65.58203125 C11.9554624 63.65885545 11.94636257 61.73567826 11.9375 59.8125 C11.92912109 58.85279297 11.92074219 57.89308594 11.91210938 56.90429688 C11.90888672 55.97294922 11.90566406 55.04160156 11.90234375 54.08203125 C11.89710693 53.22843018 11.89187012 52.3748291 11.88647461 51.49536133 C12.00420677 48.90753253 12.42892956 46.52338047 13 44 C13.66 44 14.32 44 15 44 C15 52.91 15 61.82 15 71 C10.05 71 5.1 71 0 71 C0 47.57 0 24.14 0 0 Z " fill="#072342" transform="translate(792,419)"/>
<path d="M0 0 C0.99 0 1.98 0 3 0 C3 15.84 3 31.68 3 48 C2.34 48 1.68 48 1 48 C0.16712356 45.0950524 -0.12219788 42.52486082 -0.11352539 39.50683594 C-0.11341209 38.18591949 -0.11341209 38.18591949 -0.11329651 36.83831787 C-0.10813522 35.89651672 -0.10297394 34.95471558 -0.09765625 33.984375 C-0.0962413 33.01340881 -0.09482635 32.04244263 -0.09336853 31.04205322 C-0.08777663 27.94467065 -0.07522559 24.84736068 -0.0625 21.75 C-0.05748395 19.64843854 -0.05292123 17.54687596 -0.04882812 15.4453125 C-0.03780985 10.29684708 -0.02055074 5.14843584 0 0 Z " fill="#062345" transform="translate(804,406)"/>
<path d="M0 0 C4.62 0 9.24 0 14 0 C14 0.33 14 0.66 14 1 C8.06 1.495 8.06 1.495 2 2 C2 21.14 2 40.28 2 60 C1.34 60 0.68 60 0 60 C0 40.2 0 20.4 0 0 Z " fill="#072344" transform="translate(922,429)"/>
<path d="M0 0 C0.33 2.64 0.66 5.28 1 8 C-0.43554025 8.50559908 -1.8735202 9.0042749 -3.3125 9.5 C-4.11300781 9.7784375 -4.91351563 10.056875 -5.73828125 10.34375 C-8 11 -8 11 -11 11 C-11 10.34 -11 9.68 -11 9 C-10.34 9 -9.68 9 -9 9 C-9 8.34 -9 7.68 -9 7 C-10.32 7 -11.64 7 -13 7 C-13.33 5.68 -13.66 4.36 -14 3 C-12.4188708 2.49307308 -10.83498617 1.99473557 -9.25 1.5 C-7.92742187 1.08234375 -7.92742187 1.08234375 -6.578125 0.65625 C-4 0 -4 0 0 0 Z " fill="#143959" transform="translate(410,500)"/>
<path d="M0 0 C2 2 2 2 2.8125 4.5625 C3.204375 5.366875 3.59625 6.17125 4 7 C6.54775306 7.89386164 6.54775306 7.89386164 9 8 C9 8.33 9 8.66 9 9 C8.39671875 9.06058594 7.7934375 9.12117188 7.171875 9.18359375 C6.37265625 9.26738281 5.5734375 9.35117187 4.75 9.4375 C3.96109375 9.51871094 3.1721875 9.59992188 2.359375 9.68359375 C0.17635361 9.97634993 -1.8773182 10.42064419 -4 11 C-5.25 4.375 -5.25 4.375 -3 1 C-2.01 0.67 -1.02 0.34 0 0 Z " fill="#0D3957" transform="translate(419,476)"/>
<path d="M0 0 C0.33 0 0.66 0 1 0 C1.36900736 8.33210772 1.70058983 16.6651037 2 25 C2.03158203 25.82290527 2.06316406 26.64581055 2.09570312 27.49365234 C2.16462439 29.43272556 2.20877025 31.37264042 2.25 33.3125 C2.27578125 34.33988281 2.3015625 35.36726563 2.328125 36.42578125 C1.9458473 39.42484082 1.00249126 40.78145047 -1 43 C-1 40.03 -1 37.06 -1 34 C-0.34 34 0.32 34 1 34 C0.34 33.34 -0.32 32.68 -1 32 C-1.10442677 29.5567151 -1.09024118 27.23965842 -0.9765625 24.8046875 C-0.95153656 24.09724396 -0.92651062 23.38980042 -0.90072632 22.66091919 C-0.8184671 20.39846281 -0.7219031 18.13687194 -0.625 15.875 C-0.56676631 14.34248342 -0.5094629 12.80993119 -0.453125 11.27734375 C-0.31288005 7.5177302 -0.15980243 3.758831 0 0 Z " fill="#072443" transform="translate(211,371)"/>
<path d="M0 0 C0.886875 -0.01417969 1.77375 -0.02835937 2.6875 -0.04296875 C5 0.1875 5 0.1875 7 2.1875 C6.13117188 2.166875 5.26234375 2.14625 4.3671875 2.125 C-2.29036596 2.11464345 -2.29036596 2.11464345 -8.19921875 4.75390625 C-10.87391301 8.06327372 -12.32690546 11.03459211 -12.5 15.3125 C-12.04114143 18.86865391 -11.32862363 21.86594092 -10 25.1875 C-13.42966753 21.90694845 -14.2351296 19.81692372 -14.5 15.0625 C-14.48484639 9.3041274 -12.70162372 6.65621527 -8.7265625 2.6484375 C-5.777101 0.1527393 -3.79280327 0.02756398 0 0 Z " fill="#23B1A9" transform="translate(404,432.8125)"/>
<path d="M0 0 C2.34831738 1.10932784 3.97091499 2.33510974 6 4 C5.01 4.33 4.02 4.66 3 5 C3 4.34 3 3.68 3 3 C-3.03192381 1.83594453 -6.51022721 1.74680131 -12 5 C-14.77680926 7.70801444 -17.25956978 10.51913956 -19 14 C-19.99 13.67 -20.98 13.34 -22 13 C-21.34 13 -20.68 13 -20 13 C-19.9175 12.278125 -19.835 11.55625 -19.75 10.8125 C-18.52973355 6.23650083 -16.19549836 3.80626634 -12.3125 1.1875 C-8.07657875 -0.33103781 -4.44988699 -0.75354593 0 0 Z " fill="#30B8B1" transform="translate(331,296)"/>
<path d="M0 0 C1.32 0.33 2.64 0.66 4 1 C4 1.66 4 2.32 4 3 C4.66 3 5.32 3 6 3 C8.98518223 7.99122469 8.625433 13.36356765 8 19 C6.53784893 22.77422247 4.37652866 24.74898089 1 27 C1.44233242 24.52293846 1.86020721 23.1623747 3.5234375 21.23046875 C5.43036869 18.3498928 5.3687033 16.49090111 5.3125 13.0625 C5.30863281 12.04285156 5.30476563 11.02320313 5.30078125 9.97265625 C4.99091857 6.91024721 4.45075145 4.71227446 3 2 C2.01 1.67 1.02 1.34 0 1 C0 0.67 0 0.34 0 0 Z " fill="#D9FAF9" transform="translate(413,435)"/>
<path d="M0 0 C0.33 0.99 0.66 1.98 1 3 C-3.86963642 8.47563562 -8.75055649 13.8851576 -14 19 C-14.99 18.67 -15.98 18.34 -17 18 C-16.5560791 17.56131592 -16.1121582 17.12263184 -15.65478516 16.6706543 C-13.64222971 14.67890386 -11.6335838 12.68325526 -9.625 10.6875 C-8.92632812 9.99720703 -8.22765625 9.30691406 -7.5078125 8.59570312 C-6.8375 7.92861328 -6.1671875 7.26152344 -5.4765625 6.57421875 C-4.85861816 5.96151123 -4.24067383 5.34880371 -3.60400391 4.7175293 C-1.80710653 2.88670835 -1.80710653 2.88670835 0 0 Z " fill="#E3FDFC" transform="translate(458,356)"/>
<path d="M0 0 C3.66771845 1.83385923 5.46834996 3.25062829 8.25 6.125 C8.95640625 6.84945313 9.6628125 7.57390625 10.390625 8.3203125 C11.18726563 9.15175781 11.18726563 9.15175781 12 10 C9 10 9 10 7.39453125 8.6875 C6.87246094 8.130625 6.35039062 7.57375 5.8125 7 C5.28269531 6.443125 4.75289063 5.88625 4.20703125 5.3125 C3.80871094 4.879375 3.41039062 4.44625 3 4 C0.11562221 5.29299694 -1.87219421 6.65941363 -4 9 C-4.99 8.67 -5.98 8.34 -7 8 C-4.69 5.36 -2.38 2.72 0 0 Z " fill="#2CB6AD" transform="translate(442,336)"/>
<path d="M0 0 C0.33 0.66 0.66 1.32 1 2 C-2.27094033 7.45156722 -6.41853326 11.61869443 -11 16 C-11.99 15.67 -12.98 15.34 -14 15 C-9.38 10.05 -4.76 5.1 0 0 Z " fill="#23B4AD" transform="translate(419,360)"/>
<path d="M0 0 C6.0546875 -0.1953125 6.0546875 -0.1953125 8 0 C8.66 0.66 9.32 1.32 10 2 C9.67 2.66 9.34 3.32 9 4 C9.66 4.33 10.32 4.66 11 5 C9.37581255 5.08090971 7.75048255 5.13914995 6.125 5.1875 C5.22007812 5.22230469 4.31515625 5.25710938 3.3828125 5.29296875 C2.20332031 5.14794922 2.20332031 5.14794922 1 5 C0.34 4.01 -0.32 3.02 -1 2 C-0.67 1.34 -0.34 0.68 0 0 Z " fill="#0D2845" transform="translate(364,347)"/>
<path d="M0 0 C1.32 0 2.64 0 4 0 C4 5.94 4 11.88 4 18 C2.68 17.67 1.36 17.34 0 17 C0 16.34 0 15.68 0 15 C0.66 15 1.32 15 2 15 C2 10.71 2 6.42 2 2 C1.01 1.67 0.02 1.34 -1 1 C-0.67 0.67 -0.34 0.34 0 0 Z " fill="#203753" transform="translate(952,427)"/>
<path d="M0 0 C1.02222656 -0.00773437 2.04445313 -0.01546875 3.09765625 -0.0234375 C6.24007047 0.41745143 7.61512023 1.26982121 9.9375 3.375 C8.2875 3.375 6.6375 3.375 4.9375 3.375 C4.9375 2.715 4.9375 2.055 4.9375 1.375 C-0.86667459 1.76194497 -3.02960216 2.05403803 -7.0625 6.375 C-9.3125 6.125 -9.3125 6.125 -11.0625 5.375 C-11.0625 4.715 -11.0625 4.055 -11.0625 3.375 C-7.36376643 0.58221774 -4.58649912 -0.03479013 0 0 Z " fill="#1AB0A9" transform="translate(260.0625,377.625)"/>
<path d="M0 0 C3.04332765 1.3584202 5.12309151 2.88463024 7.453125 5.2578125 C8.071875 5.88300781 8.690625 6.50820313 9.328125 7.15234375 C9.96234375 7.80332031 10.5965625 8.45429688 11.25 9.125 C11.8996875 9.78371094 12.549375 10.44242187 13.21875 11.12109375 C14.81711727 12.74296643 16.41061897 14.3693281 18 16 C13.09179647 16 10.38634469 12.30697724 7 9 C5.26962799 7.04467963 3.6435005 5.03020651 2 3 C1.34 2.67 0.68 2.34 0 2 C0 1.34 0 0.68 0 0 Z " fill="#2FB3AD" transform="translate(292,425)"/>
<path d="M0 0 C1.485 0.99 1.485 0.99 3 2 C3.1875 5.625 3.1875 5.625 3 9 C3.66 9.33 4.32 9.66 5 10 C4.01 12.64 3.02 15.28 2 18 C1.67 18 1.34 18 1 18 C0.67 12.06 0.34 6.12 0 0 Z " fill="#23ADAB" transform="translate(272,383)"/>
<path d="M0 0 C4.95 0 9.9 0 15 0 C15.33 0.66 15.66 1.32 16 2 C10.67099269 3.29188056 5.28305817 3.69057861 0 2 C0 1.34 0 0.68 0 0 Z " fill="#203651" transform="translate(749,427)"/>
<path d="M0 0 C1.65 0.33 3.3 0.66 5 1 C4.4409112 4.24271506 3.5867822 5.93057424 1 8 C0.34 8 -0.32 8 -1 8 C-1.93065133 5.39417629 -2.14917407 4.35801776 -1.0625 1.75 C-0.711875 1.1725 -0.36125 0.595 0 0 Z " fill="#123B5A" transform="translate(417,513)"/>
<path d="M0 0 C0.33 0 0.66 0 1 0 C1.08678303 3.95819611 1.14031733 7.91614934 1.1875 11.875 C1.21263672 13.00292969 1.23777344 14.13085938 1.26367188 15.29296875 C1.27333984 16.36933594 1.28300781 17.44570313 1.29296875 18.5546875 C1.3086792 19.54968262 1.32438965 20.54467773 1.34057617 21.56982422 C1.22818604 22.37178223 1.1157959 23.17374023 1 24 C0.01 24.66 -0.98 25.32 -2 26 C-2 24.02 -2 22.04 -2 20 C-1.67 20 -1.34 20 -1 20 C-1.00523682 19.42967041 -1.01047363 18.85934082 -1.01586914 18.27172852 C-1.03658221 15.70199677 -1.0496419 13.13228253 -1.0625 10.5625 C-1.07087891 9.66466797 -1.07925781 8.76683594 -1.08789062 7.84179688 C-1.09111328 6.98779297 -1.09433594 6.13378906 -1.09765625 5.25390625 C-1.10551147 4.06776733 -1.10551147 4.06776733 -1.11352539 2.85766602 C-1 1 -1 1 0 0 Z " fill="#052347" transform="translate(203,401)"/>
<path d="M0 0 C0.99 0 1.98 0 3 0 C3.36717663 7.4659249 3.36717663 7.4659249 1.625 10 C0 11 0 11 -2 11 C-1.34 7.37 -0.68 3.74 0 0 Z " fill="#1E3857" transform="translate(429,459)"/>
<path d="M0 0 C0.99 0.33 1.98 0.66 3 1 C3.309375 1.78375 3.61875 2.5675 3.9375 3.375 C5.15244942 6.37663975 6.40664211 7.18464948 9 9 C9 9.66 9 10.32 9 11 C10.32 11.33 11.64 11.66 13 12 C12.01 12.33 11.02 12.66 10 13 C8.02734375 11.671875 8.02734375 11.671875 5.9375 9.75 C5.24527344 9.12609375 4.55304687 8.5021875 3.83984375 7.859375 C1.23262052 5.22447425 0 3.77887121 0 0 Z " fill="#1D344E" transform="translate(960,476)"/>
<path d="M0 0 C3.21829786 4.29106382 3.37440695 4.7361082 2.8125 9.6875 C2.71582031 10.66074219 2.61914062 11.63398438 2.51953125 12.63671875 C2.34808594 13.41660156 2.17664063 14.19648438 2 15 C1.01 15.495 1.01 15.495 0 16 C0 10.72 0 5.44 0 0 Z " fill="#06264B" transform="translate(906,447)"/>
<path d="M0 0 C0 0.99 0 1.98 0 3 C-0.66 3 -1.32 3 -2 3 C-2 3.66 -2 4.32 -2 5 C-7.75 4.25 -7.75 4.25 -10 2 C-3.375 0 -3.375 0 0 0 Z " fill="#1E3A58" transform="translate(396,504)"/>
<path d="M0 0 C0.33 1.32 0.66 2.64 1 4 C1.66 4 2.32 4 3 4 C3 4.99 3 5.98 3 7 C-1.95 7 -6.9 7 -12 7 C-12 6.67 -12 6.34 -12 6 C-6.555 5.505 -6.555 5.505 -1 5 C-0.67 3.35 -0.34 1.7 0 0 Z " fill="#082344" transform="translate(498,483)"/>
<path d="M0 0 C0.33 0 0.66 0 1 0 C1.56312292 11.90900701 1.56312292 11.90900701 -2 16 C-2.99 16.66 -3.98 17.32 -5 18 C-4.55935268 15.53237502 -4.11760867 14.14211048 -2.5 12.1875 C-0.71391267 9.58278931 -0.51816104 7.87604774 -0.3125 4.75 C-0.24675781 3.85796875 -0.18101562 2.9659375 -0.11328125 2.046875 C-0.07589844 1.37140625 -0.03851563 0.6959375 0 0 Z " fill="#BEF2F0" transform="translate(419,444)"/>
<path d="M0 0 C4.95 0 9.9 0 15 0 C15 0.99 15 1.98 15 3 C13.41058594 2.98259766 13.41058594 2.98259766 11.7890625 2.96484375 C10.40104342 2.95546524 9.01302245 2.94636511 7.625 2.9375 C6.57699219 2.92493164 6.57699219 2.92493164 5.5078125 2.91210938 C1.62704624 2.8164558 1.62704624 2.8164558 -2 4 C-1.34 2.68 -0.68 1.36 0 0 Z " fill="#D7F4F5" transform="translate(319,327)"/>
<path d="M0 0 C0.66 0 1.32 0 2 0 C2.33 0.99 2.66 1.98 3 3 C2.34 3.66 1.68 4.32 1 5 C0.59952556 7.32275177 0.2602896 9.65739357 0 12 C-0.66 11.67 -1.32 11.34 -2 11 C-1.85892253 9.54119891 -1.71197585 8.08296449 -1.5625 6.625 C-1.48128906 5.81289063 -1.40007812 5.00078125 -1.31640625 4.1640625 C-1 2 -1 2 0 0 Z " fill="#30455E" transform="translate(213,490)"/>
<path d="M0 0 C0.99 0.33 1.98 0.66 3 1 C2.67 1.66 2.34 2.32 2 3 C2.33 3.99 2.66 4.98 3 6 C0.69 6 -1.62 6 -4 6 C-2.25 1.125 -2.25 1.125 0 0 Z " fill="#0B2848" transform="translate(893,473)"/>
<path d="M0 0 C0.33 1.32 0.66 2.64 1 4 C-2.63 3.01 -6.26 2.02 -10 1 C-5.64467851 -1.17766075 -4.53374042 -1.03039555 0 0 Z " fill="#223B59" transform="translate(755,462)"/>
<path d="M0 0 C0.33 0.99 0.66 1.98 1 3 C-1.64 5.31 -4.28 7.62 -7 10 C-7.66 9.67 -8.32 9.34 -9 9 C-6.03 6.03 -3.06 3.06 0 0 Z " fill="#E0FEFD" transform="translate(418,398)"/>
<path d="M0 0 C2.7601593 2.38377394 4.05777504 4.46665639 5 8 C4.86787732 10.73392322 4.45909323 13.29134991 4 16 C3.67 16 3.34 16 3 16 C2.92652344 15.07767578 2.92652344 15.07767578 2.8515625 14.13671875 C2.77679688 13.32847656 2.70203125 12.52023437 2.625 11.6875 C2.55539062 10.88699219 2.48578125 10.08648437 2.4140625 9.26171875 C2.10435574 6.72775559 2.10435574 6.72775559 0 4 C0 2.68 0 1.36 0 0 Z " fill="#C0F2F1" transform="translate(436,487)"/>
<path d="M0 0 C3.96 1.98 3.96 1.98 8 4 C6.68 4.33 5.36 4.66 4 5 C2.6520257 5.63654342 1.31403276 6.29605388 0 7 C-1 4 -1 4 0 0 Z " fill="#1A344F" transform="translate(895,471)"/>
<path d="M0 0 C0.33 0.99 0.66 1.98 1 3 C-0.65234375 5.48046875 -0.65234375 5.48046875 -2.9375 8.1875 C-3.68902344 9.08855469 -4.44054687 9.98960937 -5.21484375 10.91796875 C-5.80394531 11.60503906 -6.39304687 12.29210937 -7 13 C-7.66 12.67 -8.32 12.34 -9 12 C-6.03 8.04 -3.06 4.08 0 0 Z " fill="#243C55" transform="translate(820,438)"/>
<path d="M0 0 C3.63 0 7.26 0 11 0 C7 3 7 3 4.859375 3.07421875 C2.90625 2.71614583 0.953125 2.35807292 -1 2 C-0.67 1.34 -0.34 0.68 0 0 Z " fill="#0A2648" transform="translate(228,352)"/>
<path d="M0 0 C1.62580966 0.11398665 3.25067157 0.24155659 4.875 0.375 C5.77992188 0.44460938 6.68484375 0.51421875 7.6171875 0.5859375 C10 1 10 1 12 3 C10.02 3.33 8.04 3.66 6 4 C6 3.34 6 2.68 6 2 C4.02 2 2.04 2 0 2 C0 1.34 0 0.68 0 0 Z " fill="#072547" transform="translate(291,381)"/>
<path d="M0 0 C5.859375 -0.390625 5.859375 -0.390625 8 0 C9.32 1.32 10.64 2.64 12 4 C6.06 3.01 6.06 3.01 0 2 C0 1.34 0 0.68 0 0 Z " fill="#D8FCFB" transform="translate(322,513)"/>
<path d="M0 0 C0.66 0.33 1.32 0.66 2 1 C1.67 1.66 1.34 2.32 1 3 C2.32 3 3.64 3 5 3 C5 3.66 5 4.32 5 5 C4.34 5 3.68 5 3 5 C3 5.66 3 6.32 3 7 C2.34 7 1.68 7 1 7 C1 6.34 1 5.68 1 5 C0.01 5 -0.98 5 -2 5 C-2 4.34 -2 3.68 -2 3 C-1.34 3 -0.68 3 0 3 C0 2.01 0 1.02 0 0 Z " fill="#05264B" transform="translate(396,504)"/>
<path d="M0 0 C0.66 0.33 1.32 0.66 2 1 C1.01 2.485 1.01 2.485 0 4 C-0.66 4 -1.32 4 -2 4 C-2.33 4.99 -2.66 5.98 -3 7 C-3.66 7 -4.32 7 -5 7 C-5 6.34 -5 5.68 -5 5 C-5.66 4.67 -6.32 4.34 -7 4 C-1.7265625 0.77734375 -1.7265625 0.77734375 0 0 Z " fill="#36B5AF" transform="translate(317,517)"/>
<path d="M0 0 C1.98 0 3.96 0 6 0 C6.33 1.32 6.66 2.64 7 4 C4.69 3.67 2.38 3.34 0 3 C0 2.01 0 1.02 0 0 Z " fill="#072546" transform="translate(202,343)"/>
<path d="M0 0 C-0.6875 1.9375 -0.6875 1.9375 -2 4 C-4.4375 4.875 -4.4375 4.875 -7 5 C-7.99 4.34 -8.98 3.68 -10 3 C-8.70990357 2.49596232 -7.41786211 1.99690074 -6.125 1.5 C-5.04605469 1.08234375 -5.04605469 1.08234375 -3.9453125 0.65625 C-2 0 -2 0 0 0 Z " fill="#243E5A" transform="translate(233,340)"/>
<path d="M0 0 C0.99 0 1.98 0 3 0 C3 1.65 3 3.3 3 5 C2.01 5.495 2.01 5.495 1 6 C0.34 5.67 -0.32 5.34 -1 5 C-0.67 3.35 -0.34 1.7 0 0 Z " fill="#0C294A" transform="translate(489,472)"/>
<path d="M0 0 C0.66 0.33 1.32 0.66 2 1 C1.01 4.3 0.02 7.6 -1 11 C-1.66 11 -2.32 11 -3 11 C-2.69078116 9.54096742 -2.37751201 8.08279278 -2.0625 6.625 C-1.88847656 5.81289063 -1.71445313 5.00078125 -1.53515625 4.1640625 C-1 2 -1 2 0 0 Z " fill="#263E57" transform="translate(240,440)"/>
<path d="M0 0 C5.75 -0.125 5.75 -0.125 8 1 C8 1.66 8 2.32 8 3 C5.69 3 3.38 3 1 3 C0.67 2.01 0.34 1.02 0 0 Z " fill="#092243" transform="translate(689,428)"/>
<path d="M0 0 C0.99 0.33 1.98 0.66 3 1 C2.01 1.495 2.01 1.495 1 2 C1.66 2.33 2.32 2.66 3 3 C3 3.66 3 4.32 3 5 C1.02 5.33 -0.96 5.66 -3 6 C-2.625 3.5625 -2.625 3.5625 -2 1 C-1.34 0.67 -0.68 0.34 0 0 Z " fill="#052447" transform="translate(376,510)"/>
<path d="M0 0 C1.9453125 0.2421875 1.9453125 0.2421875 4.125 0.875 C4.84945312 1.07867187 5.57390625 1.28234375 6.3203125 1.4921875 C6.87460937 1.65976562 7.42890625 1.82734375 8 2 C7.67 2.66 7.34 3.32 7 4 C2.545 3.01 2.545 3.01 -2 2 C-1.34 1.34 -0.68 0.68 0 0 Z " fill="#324762" transform="translate(978,462)"/>
<path d="M0 0 C0.66 0 1.32 0 2 0 C2.33 2.97 2.66 5.94 3 9 C2.01 8.67 1.02 8.34 0 8 C0 5.36 0 2.72 0 0 Z " fill="#374D66" transform="translate(962,442)"/>
<path d="M0 0 C0.66 0 1.32 0 2 0 C1.67 3.3 1.34 6.6 1 10 C0.34 9.34 -0.32 8.68 -1 8 C-0.96712417 5.27130593 -0.43602229 2.7033382 0 0 Z " fill="#19324E" transform="translate(446,439)"/>
<path d="M0 0 C0.33 0.99 0.66 1.98 1 3 C-1.97 5.475 -1.97 5.475 -5 8 C-5.66 7.67 -6.32 7.34 -7 7 C-4.69 4.69 -2.38 2.38 0 0 Z " fill="#CAF6F4" transform="translate(437,378)"/>
<path d="M0 0 C0 0.99 0 1.98 0 3 C-3.3 3.33 -6.6 3.66 -10 4 C-6.86268382 1.90845588 -3.85464592 0 0 0 Z " fill="#233D59" transform="translate(307,311)"/>
<path d="M0 0 C-0.33 0.99 -0.66 1.98 -1 3 C-0.34 3.33 0.32 3.66 1 4 C-1.375 3.6875 -1.375 3.6875 -4 3 C-4.66 2.01 -5.32 1.02 -6 0 C-3 -1 -3 -1 0 0 Z " fill="#0C2746" transform="translate(744,485)"/>
<path d="M0 0 C2.7972908 2.06756277 3.02692273 3.14440371 3.6875 6.6875 C3.790625 7.780625 3.89375 8.87375 4 10 C3.71125 9.360625 3.4225 8.72125 3.125 8.0625 C2.17176549 5.84793921 2.17176549 5.84793921 0 5 C0 3.35 0 1.7 0 0 Z " fill="#172E48" transform="translate(905,441)"/>
<path d="M0 0 C0.66 0 1.32 0 2 0 C2.26218749 3.14624993 2.24754367 4.61837017 0.5 7.3125 C-0.2425 8.1478125 -0.2425 8.1478125 -1 9 C-2.25541557 5.23375329 -1.37061958 3.62811066 0 0 Z " fill="#1F3856" transform="translate(499,442)"/>
<path d="M0 0 C0 3 0 3 -2 5.1875 C-2.66 5.785625 -3.32 6.38375 -4 7 C-4.99 6.67 -5.98 6.34 -7 6 C-4.69 4.02 -2.38 2.04 0 0 Z " fill="#243C56" transform="translate(671,431)"/>
<path d="M0 0 C0.36923077 5.53846154 0.36923077 5.53846154 -1.5 7.875 C-2.2425 8.431875 -2.2425 8.431875 -3 9 C-3 6.36 -3 3.72 -3 1 C-1 0 -1 0 0 0 Z " fill="#26405D" transform="translate(203,416)"/>
<path d="M0 0 C0 0.66 0 1.32 0 2 C-2.64 2 -5.28 2 -8 2 C-6.14210462 -1.71579076 -3.44525918 -1.06921837 0 0 Z " fill="#082747" transform="translate(397,332)"/>
<path d="M0 0 C0.6875 1.6875 0.6875 1.6875 1 4 C-0.4375 6.75 -0.4375 6.75 -2 9 C-2.99 8.67 -3.98 8.34 -5 8 C-4.34 8 -3.68 8 -3 8 C-2.87625 7.236875 -2.7525 6.47375 -2.625 5.6875 C-2 3 -2 3 0 0 Z " fill="#3DB7AF" transform="translate(314,301)"/>
<path d="M0 0 C1.32 0.33 2.64 0.66 4 1 C4 2.32 4 3.64 4 5 C2.68 4.34 1.36 3.68 0 3 C0 2.01 0 1.02 0 0 Z " fill="#0B2A4C" transform="translate(962,475)"/>
<path d="M0 0 C0.33 0 0.66 0 1 0 C1 2.64 1 5.28 1 8 C0.01 8.33 -0.98 8.66 -2 9 C-1.125 1.125 -1.125 1.125 0 0 Z " fill="#042144" transform="translate(767,470)"/>
<path d="M0 0 C0.99 0.33 1.98 0.66 3 1 C2.67 2.65 2.34 4.3 2 6 C0.68 5.67 -0.64 5.34 -2 5 C-1.34 3.35 -0.68 1.7 0 0 Z " fill="#274260" transform="translate(704,464)"/>
</svg>
